<?xml version="1.0" encoding="UTF-8"?>
<svg viewBox="0 0 218 154" version="1.1" xmlns="http://www.w3.org/2000/svg" xmlns:xlink="http://www.w3.org/1999/xlink">
    <title>Group</title>
    <g id="Page-1" stroke="none" stroke-width="1" fill="none" fill-rule="evenodd">
        <g id="Desktop-HD" transform="translate(-254.000000, -274.000000)">
            <g id="Group" transform="translate(254.000000, 274.000000)">
                <rect id="Rectangle" fill="#121212" x="0" y="0" width="218" height="154"></rect>
                <g id="next-white" transform="translate(35.000000, 32.000000)" fill="#FFFFFF" fill-rule="nonzero">
                    <path d="M34.992,23.495 L62.847,23.495 L62.847,25.714 L37.546,25.714 L37.546,42.413 L61.338,42.413 L61.338,44.632 L37.546,44.632 L37.546,62.966 L63.137,62.966 L63.137,65.185 L34.992,65.185 L34.992,23.495 Z M65.342,23.495 L68.302,23.495 L81.417,41.829 L94.822,23.495 L113.055,0.207 L83.1,43.756 L98.536,65.185 L95.46,65.185 L81.417,45.683 L67.316,65.185 L64.298,65.185 L79.85,43.756 L65.343,23.495 L65.342,23.495 Z M99.639,25.714 L99.639,23.495 L131.381,23.495 L131.381,25.714 L116.758,25.714 L116.758,65.184 L114.204,65.184 L114.204,25.714 L99.64,25.714 L99.639,25.714 Z M0.145,23.495 L3.337,23.495 L47.348,89.498 L29.16,65.185 L2.814,26.648 L2.698,65.185 L0.145,65.185 L0.145,23.495 Z M131.125,62.296 C130.602,62.296 130.211,61.891 130.211,61.368 C130.211,60.844 130.602,60.439 131.124,60.439 C131.652,60.439 132.037,60.844 132.037,61.368 C132.037,61.891 131.652,62.296 131.124,62.296 L131.125,62.296 Z M133.633,59.853 L135,59.853 C135.019,60.595 135.56,61.093 136.354,61.093 C137.242,61.093 137.745,60.558 137.745,59.554 L137.745,53.198 L139.136,53.198 L139.136,59.56 C139.136,61.368 138.093,62.409 136.366,62.409 C134.746,62.409 133.634,61.399 133.634,59.853 L133.633,59.853 Z M140.955,59.773 L142.334,59.773 C142.452,60.626 143.284,61.168 144.483,61.168 C145.6,61.168 146.42,60.588 146.42,59.791 C146.42,59.106 145.899,58.694 144.712,58.414 L143.557,58.134 C141.937,57.754 141.197,56.968 141.197,55.647 C141.197,54.045 142.501,52.979 144.457,52.979 C146.277,52.979 147.607,54.045 147.687,55.559 L146.333,55.559 C146.203,54.731 145.483,54.213 144.439,54.213 C143.339,54.213 142.607,54.743 142.607,55.553 C142.607,56.195 143.079,56.563 144.247,56.837 L145.234,57.08 C147.072,57.51 147.83,58.258 147.83,59.61 C147.83,61.33 146.5,62.409 144.377,62.409 C142.39,62.409 141.054,61.38 140.955,59.772 L140.955,59.773 Z" id="Shape"></path>
                </g>
            </g>
        </g>
    </g>
</svg>
