<?xml version="1.0" encoding="UTF-8"?>
<svg viewBox="0 0 500 220" version="1.1" xmlns="http://www.w3.org/2000/svg" xmlns:xlink="http://www.w3.org/1999/xlink">
    <title>frontend</title>
    <g id="Page-1" stroke="none" stroke-width="1" fill="none" fill-rule="evenodd">
        <g id="Desktop" transform="translate(-97.000000, -153.000000)">
            <g id="frontend" transform="translate(97.000000, 153.000000)">
                <rect id="Rectangle" fill="#121212" x="0" y="1.42108547e-14" width="500" height="219.864177"></rect>
                <g id="fem" transform="translate(56.000000, 79.000000)" fill-rule="nonzero">
                    <g id="a" transform="translate(0.000000, 18.000000)" fill="#8A8A8A">
                        <polygon id="Path" points="18.7073047 0.0864862476 0.174712161 0.0864862476 0.174712161 35.8917928 2.53332634 35.8917928 2.53332634 18.1880579 14.6932928 18.1880579 14.6932928 16.1988742 2.53332634 16.1988742 2.53332634 2.07566994 18.7073047 2.07566994"></polygon>
                    </g>
                    <g id="b" transform="translate(20.000000, 27.000000)" fill="#8A8A8A">
                        <path d="M3.42108146,16.2780264 C3.42108146,6.25010232 9.44288301,2.06023438 12.1483301,2.06023438 C15.3599576,2.06023438 15.5170481,5.60383905 15.5650479,8.04576001 L17.9214051,8.04576001 C17.9214051,4.45444463 16.7737719,0.0650591629 12.3534204,0.0650591629 C7.81525114,0.0650591629 5.06616783,4.15516835 3.27708186,7.79419444 L2.404357,0.312287396 L0.135272354,0.312287396 L1.0952697,8.74407134 L1.0952697,26.9999245 L3.45162683,26.9999245 L3.42108146,16.2780264 Z" id="Path"></path>
                    </g>
                    <g id="c" transform="translate(40.000000, 27.000000)" fill="#8A8A8A">
                        <path d="M9.94706248,26.9025131 C14.2772092,26.9025131 19.8264003,23.9293448 19.8264003,13.4597267 C19.8264003,2.93928512 14.2306485,0.0677636415 9.94706248,0.0677636415 C5.26982672,0.0677636415 0.114285399,3.45598958 0.114285399,13.4936089 C0.114285399,24.0394621 5.61691571,26.961807 9.94706248,26.961807 L9.94706248,26.9025131 Z M9.94706248,24.9542831 C3.66983114,24.9542831 2.39999337,18.5166539 2.39999337,13.4597267 C2.39999337,8.44515227 3.66983114,2.01175827 9.94706248,2.01175827 C16.2750873,2.01175827 17.5406923,8.44938755 17.5406923,13.4597267 C17.5406923,18.474301 16.2708545,24.9542831 9.94706248,24.9542831 Z" id="Shape"></path>
                    </g>
                    <g id="d" transform="translate(63.000000, 27.000000)" fill="#8A8A8A">
                        <path d="M3.56383197,15.6696839 C3.56383197,5.68389393 8.66054105,2.00137054 12.4090053,2.00137054 C16.4580336,2.00137054 16.4580336,6.07152797 16.4580336,9.02513083 L16.4580336,26.2284981 L18.7766713,26.2284981 L18.7766713,7.95913722 C18.7766713,4.0827968 17.4456015,0.0674137432 12.7052756,0.0674137432 C8.5403154,0.0674137432 4.37535515,3.85948589 3.38778725,7.69369217 L3.30191179,7.69369217 L2.35728163,0.320218553 L0.210394899,0.320218553 C1.06914959,4.70216859 1.24090053,9.04198448 1.24090053,13.4239345 L1.24090053,26.2284981 L3.55953819,26.2284981 L3.56383197,15.6696839 Z" id="Path"></path>
                    </g>
                    <g id="e" transform="translate(85.000000, 19.000000)" fill="#8A8A8A">
                        <path d="M18.0319502,8.55694607 L8.42582288,8.55694607 L8.42582288,0.254544752 L6.09967546,0.254544752 L6.09967546,8.55694607 L0.198153299,8.55694607 L0.198153299,10.5084558 L6.09967546,10.5084558 L6.09967546,26.7568958 C6.09967546,33.2902111 9.11505175,34.9023279 12.4836578,34.9023279 C16.3950316,34.9023279 19.2682545,32.2168807 20.905173,28.9035565 L18.6781023,28.3647702 C17.5408746,30.7999149 15.5076495,32.9465757 12.5870422,32.9465757 C9.35628185,32.9465757 8.42582288,30.604764 8.42582288,28.1187102 L8.42582288,10.5126982 L18.0319502,10.5126982 L18.0319502,8.55694607 Z" id="Path"></path>
                    </g>
                    <g id="f" transform="translate(108.000000, 27.000000)" fill="#8A8A8A">
                        <path d="M18.6115888,22.4258195 C16.1777331,23.8827567 13.405254,24.9542831 10.4846271,24.9542831 C6.53966448,24.9542831 2.78941029,22.9044065 2.35766545,13.8451374 L19.9787808,13.8451374 C19.9787808,3.1849315 14.8571018,0.0677636415 10.5227223,0.0677636415 C2.93332523,0.0677636415 0.0677246807,7.09833246 0.0677246807,13.6206674 C0.0677246807,20.1430023 2.83173821,26.9194542 10.3788073,26.9194542 C13.6930839,26.9194542 16.6094779,25.9029864 19.5808983,24.5900489 L18.6115888,22.4258195 Z M2.35766545,11.8969074 C2.20105212,7.37362582 5.21903321,2.01175827 10.2306596,2.01175827 C15.2973123,2.01175827 17.9216436,7.46680203 17.6803745,11.8969074 L2.35766545,11.8969074 Z" id="Shape"></path>
                    </g>
                    <g id="d" transform="translate(131.000000, 27.000000)" fill="#8A8A8A">
                        <path d="M3.56383197,15.6696839 C3.56383197,5.68389393 8.66054105,2.00137054 12.4090053,2.00137054 C16.4580336,2.00137054 16.4580336,6.07152797 16.4580336,9.02513083 L16.4580336,26.2284981 L18.7766713,26.2284981 L18.7766713,7.95913722 C18.7766713,4.0827968 17.4456015,0.0674137432 12.7052756,0.0674137432 C8.5403154,0.0674137432 4.37535515,3.85948589 3.38778725,7.69369217 L3.30191179,7.69369217 L2.35728163,0.320218553 L0.210394899,0.320218553 C1.06914959,4.70216859 1.24090053,9.04198448 1.24090053,13.4239345 L1.24090053,26.2284981 L3.55953819,26.2284981 L3.56383197,15.6696839 Z" id="Path"></path>
                    </g>
                    <g id="g" transform="translate(154.000000, 16.000000)" fill="#8A8A8A">
                        <path d="M18.7428054,0.290141649 L16.4570974,0.290141649 L16.4570974,12.5886832 C14.7004885,11.1423054 12.4147805,10.3541594 10.1248398,10.3541594 C6.56929403,10.3541594 0,13.3421854 0,23.908538 C0,34.167427 5.64654525,37.8050238 9.98092482,37.8050238 C12.9946731,37.8050238 15.4835551,36.202749 16.8465143,33.4745514 L17.7692631,37.8050238 L19.9152889,37.5018907 C18.9840746,34.4142639 18.7428054,31.2227058 18.7428054,27.9921734 L18.7428054,0.290141649 Z M16.4570974,30.5168388 C15.3819681,33.3576287 13.2952014,35.8000151 10.0232527,35.8000151 C7.11109147,35.8000151 2.28994077,33.1584269 2.28994077,24.0471131 C2.28994077,14.3901597 7.79257107,12.3418463 10.7131979,12.3418463 C12.8719221,12.3418463 14.8613346,13.485091 16.4697958,14.9314687 L16.4570974,30.5168388 Z" id="Shape"></path>
                    </g>
                    <path d="M281.593057,33.6132911 C280.58478,32.6734177 279.62777,32.2120253 278.739119,32.2120253 C277.948732,32.2120253 277.072897,32.596519 276.098798,33.4509494 C275.116155,34.2626582 274.176235,35.3306962 273.321762,36.6123418 C272.46729,37.8939873 271.740988,39.3037975 271.142857,40.8417722 C270.544726,42.3370253 270.288385,43.8322785 270.288385,45.1993671 C270.288385,45.7120253 270.373832,46.096519 270.58745,46.3528481 C270.801068,46.6091772 271.05741,46.7373418 271.399199,46.7373418 C271.698264,46.7373418 272.253672,46.3528481 273.022697,45.5838608 C273.791722,44.8148734 274.646195,43.8322785 275.628838,42.5933544 C276.568758,41.3544304 277.594126,39.9446203 278.619493,38.3639241 C279.64486,36.7832278 280.58478,35.1598101 281.481976,33.4936709 M293.914553,39.346519 C293.957276,39.5174051 293.957276,39.6882911 294,39.9018987 L294,40.414557 C294,41.653481 293.572764,42.806962 292.675567,43.9177215 C291.308411,45.7120253 289.983979,47.2072785 288.744993,48.4889241 C287.463284,49.7705696 286.35247,50.7958861 285.284379,51.6075949 C284.216288,52.4193038 283.319092,53.0174051 282.507343,53.4018987 C281.695594,53.7863924 281.05474,54 280.58478,54 C279.730307,54 278.918558,53.7863924 278.106809,53.3164557 C277.29506,52.8892405 276.696929,52.2484177 276.312417,51.4367089 C276.312417,50.9667722 276.35514,50.539557 276.440587,50.0696203 C276.526035,49.5996835 276.739653,49.0443038 276.953271,48.3607595 C277.209613,47.6772152 277.551402,46.8655063 278.021362,45.9256329 C278.448598,44.9857595 279.046729,43.789557 279.773031,42.3370253 C279.1749,42.3370253 278.790387,42.4651899 278.619493,42.7642405 C276.910547,45.028481 275.457944,46.8655063 274.261682,48.318038 C273.065421,49.7278481 271.99733,50.8813291 271.142857,51.7357595 C270.288385,52.5901899 269.562083,53.1455696 268.963952,53.4446203 C268.408545,53.7436709 267.895861,53.914557 267.468625,53.914557 C265.75968,53.7009494 264.392523,52.8892405 263.452603,51.5648734 C262.46996,50.1977848 262,48.5316456 262,46.4810127 C262,43.7041139 262.46996,41.1408228 263.452603,38.7911392 C264.435247,36.3987342 265.674232,34.3481013 267.169559,32.596519 C268.664887,30.8449367 270.331108,29.4778481 272.125501,28.4952532 C273.919893,27.5126582 275.628838,27 277.252336,27 C278.508411,27 279.576502,27.2136076 280.456609,27.6408228 C281.353805,28.068038 282.259546,28.7943038 283.233645,29.9050633 C284.600801,28.9651899 285.797063,28.3243671 286.82243,27.9398734 C287.847797,27.5553797 288.574099,27.3844937 289.086782,27.3844937 C289.77036,27.3844937 290.295861,27.6835443 290.71028,28.2816456 C290.539386,28.9651899 290.283044,29.8196203 289.941255,30.8449367 C289.599466,31.8702532 289.266222,32.9382911 288.885981,34.0917722 C288.544192,35.2025316 288.15968,36.3560127 287.732443,37.5094937 L286.664352,40.7563291 C286.365287,41.7389241 286.066222,42.6360759 285.852603,43.3623418 C285.638985,44.0886076 285.510814,44.6439873 285.468091,44.9857595 C285.468091,45.3275316 285.724433,45.5411392 286.181575,45.5411392 C286.35247,45.5411392 286.566088,45.4556962 286.950601,45.2848101 C287.318024,45.1139241 287.805073,44.7721519 288.403204,44.3022152 C289.001335,43.789557 289.757543,43.1487342 290.624833,42.3370253 C291.479306,41.4825949 292.504673,40.4572785 293.658211,39.2183544" id="Shape" fill="#BF2B26"></path>
                    <path d="M298.635138,37.4742053 C298.27048,37.9815008 297.80715,38.5618812 297.249438,39.2110474 C296.691726,39.8989057 296.091113,40.5437728 295.439019,41.2746222 C294.795506,42.0054716 294.109091,42.6933299 293.414096,43.4241793 L291.440654,45.487754 C292.307252,46.6055237 293.259653,47.4653465 294.306435,48.1102137 C295.378958,48.7550808 296.40858,49.0560188 297.395301,49.0560188 C298.25332,49.0560188 299.025536,48.7550808 299.66905,48.1102137 C300.312564,47.4653465 300.61287,46.5195414 300.61287,45.2727983 C300.61287,44.6709224 300.569969,44.0260552 300.398366,43.338197 C300.269663,42.6503387 300.098059,42.0054716 299.883555,41.3176133 L299.240041,39.383012 C299.025536,38.781136 298.853933,38.17926 298.72523,37.6203752 M297.695608,33.0203231 C297.867211,31.9885357 298.210419,30.9997394 298.682329,30.0969255 C299.154239,29.1941115 299.711951,28.3772798 300.312564,27.7324127 C300.956078,27.0875456 301.642492,26.5716519 302.371808,26.1847316 C303.101124,25.7978114 303.87334,25.6258468 304.645557,25.6258468 C305.417773,25.6258468 306.061287,25.8837936 306.618999,26.3566962 C307.176711,26.8725899 307.519918,27.5604482 307.648621,28.4632621 C307.391216,28.9791558 307.048008,29.4950495 306.618999,30.0109432 C306.18999,30.5268369 305.71808,31.0427306 305.203269,31.5156331 C305.28907,32.2464825 305.503575,33.0633142 305.932584,33.9661282 C306.318693,34.8689422 306.747702,35.8147473 307.176711,36.8465347 C307.60572,37.878322 307.991828,38.9531006 308.335036,40.1138614 C308.678243,41.2746222 308.849847,42.435383 308.849847,43.6821261 C308.849847,44.9288692 308.463739,46.1326212 307.691522,47.3363731 C306.919305,48.5831162 305.889683,49.6578947 304.688458,50.646691 C303.487232,51.6354872 302.157303,52.4093278 300.741573,53.0112038 C299.325843,53.6130797 297.953013,53.9140177 296.665986,53.9140177 C295.336057,53.9140177 294.134831,53.7850443 293.062308,53.4411152 C292.032686,53.1401772 291.088866,52.7102658 290.359551,52.1943721 C289.630235,51.7214695 289.029622,51.1195935 288.600613,50.4747264 C288.214505,49.8298593 288,49.1849922 288,48.5401251 C288,47.59432 288.128703,46.7344971 288.386108,45.9176655 C288.643514,45.1438249 289.115424,44.2840021 289.758938,43.4241793 C290.059244,43.0802501 290.531154,42.5213653 291.174668,41.7905159 C291.818182,41.0596665 292.504597,40.1998437 293.276813,39.2970297 C294.04903,38.3512246 294.821246,37.3624283 295.679265,36.330641 C296.494382,35.2558624 297.223698,34.2670662 297.824311,33.2782699 M329.871297,39.2970297 C329.914198,39.4689943 329.957099,39.6409588 329.957099,39.8129234 C330,40.0278791 330,40.1998437 330,40.3718082 C330,41.7045336 329.570991,42.9082856 328.712972,43.8970818 C327.21144,45.9176655 325.752809,47.59432 324.37998,48.8840542 C323.00715,50.1737884 321.763023,51.2055758 320.604699,51.9794164 C319.489275,52.7532569 318.459653,53.2691506 317.601634,53.5700886 C316.743616,53.8710266 316.057201,54 315.499489,54 C314.298264,54 313.139939,53.6560709 312.110317,52.9252215 C311.080695,52.2373632 310.308478,51.248567 309.836568,50.0018239 L314.770174,34.0951016 L313.483146,34.3960396 C313.268641,33.7081813 313.18284,33.0891089 313.18284,32.5044294 C313.225741,31.6446066 313.440245,30.8535696 313.783453,30.1270193 C314.169561,29.3961699 314.59857,28.8802762 315.113381,28.5793382 L316.572012,28.4374674 L318.845761,21.3439291 C319.703779,21.1289734 320.604699,21 321.505618,21 C322.706844,21 323.736466,21.2149557 324.551583,21.6448671 C325.409602,22.0747785 325.881512,22.6766545 326.096016,23.3989057 L324.808989,27.6550287 L329.957099,27.139135 C329.914198,27.8699844 329.742594,28.6438249 329.399387,29.4176655 C329.05618,30.2344971 328.58427,30.9524492 328.026558,31.6102137 L323.307457,32.642001 L319.74668,44.7225117 C319.74668,45.9262637 320.132789,46.5281397 320.862104,46.5281397 C321.462717,46.5281397 322.492339,46.0380406 323.95097,45.0234497 C325.452503,44.0260552 327.468846,42.1430433 330,39.4346014" id="Shape" fill="#BF2B26"></path>
                    <path d="M341.229091,31.5471429 C341.014215,31.5471429 340.704793,31.7014286 340.309421,32.0057143 C339.909752,32.3142857 339.475702,32.8071429 339.007273,33.4928571 C338.534545,34.1785714 338.053223,35.0357143 337.546116,36.0857143 C337.043306,37.1142857 336.570579,38.3571429 336.140826,39.7714286 C337.90281,38.9571429 339.320992,38.2285714 340.360992,37.5857143 C341.409587,36.9428571 342.13157,36.3857143 342.53124,35.9571429 C343.03405,35.3142857 343.287603,34.5428571 343.287603,33.6 C343.287603,32.1428571 342.6,31.4571429 341.267769,31.4571429 M352.828099,38.7428571 C352.91405,39.0857143 352.957025,39.4714286 352.957025,39.9 C352.957025,40.5 352.785124,41.1857143 352.527273,41.9142857 C352.269421,42.6428571 351.92562,43.2857143 351.538843,43.8 C349.046281,47.1857143 346.467769,49.7142857 343.846281,51.4285714 C341.267769,53.1428571 338.603306,54 335.852893,54 C332.887603,54 330.695868,53.2285714 329.191736,51.7285714 C327.730579,50.2285714 327,48.1714286 327,45.6857143 C327,44.7857143 327.08595,43.8428571 327.300826,42.8571429 C327.515702,41.8714286 327.773554,40.9285714 328.07438,40.1142857 C328.761983,38.1428571 329.664463,36.3857143 330.781818,34.7571429 C331.899174,33.1285714 333.145455,31.7571429 334.520661,30.6 C335.895868,29.4428571 337.31405,28.5857143 338.818182,27.9428571 C340.322314,27.3 341.826446,27 343.287603,27 C345.522314,27 347.241322,27.4714286 348.401653,28.4142857 C349.604959,29.3571429 350.163636,30.6857143 350.163636,32.3571429 C350.163636,32.9142857 350.077686,33.4714286 349.86281,34.1142857 C349.647934,34.7571429 349.347107,35.3142857 349.003306,35.8285714 C348.78843,36.0857143 348.315702,36.5142857 347.585124,37.0714286 C346.81157,37.6285714 345.866116,38.2285714 344.705785,38.9142857 C343.545455,39.6 342.170248,40.3285714 340.580165,41.0571429 C339.033058,41.8285714 337.31405,42.5142857 335.466116,43.1571429 C335.42314,43.3285714 335.42314,43.5428571 335.380165,43.8 C335.380165,44.0571429 335.33719,44.3142857 335.33719,44.6142857 C335.33719,45.6 335.680992,46.3714286 336.282645,47.0142857 C336.884298,47.6571429 337.872727,47.9571429 339.247934,47.9571429 C340.795041,47.9571429 342.728926,47.2285714 345.049587,45.8142857 C347.370248,44.4 350.034711,41.9571429 353,38.5285714" id="Shape" fill="#BF2B26"></path>
                    <path d="M373.885625,39.0874004 C373.960409,39.2347923 374,39.4125297 374,39.6336177 L374,40.179835 C374,40.7997483 373.876827,41.4153265 373.639279,42.0352398 C373.397332,42.6551531 373.076203,43.2187107 372.671491,43.7259125 C371.189017,45.6593483 369.794522,47.28066 368.48361,48.5898476 C367.172698,49.9033702 365.97616,50.9567893 364.907195,51.7544399 C363.807436,52.5607607 362.883638,53.1329884 362.047822,53.479793 C361.212005,53.8265977 360.50816,54 360.024266,54 C358.924507,54 357.956719,53.6965459 357.032922,53.0983079 C356.109124,52.4913998 355.317298,51.5593623 354.613453,50.2805202 C354.701433,49.3354776 355.009366,48.2863935 355.53725,47.1419382 C356.021144,45.9974829 356.637009,44.8010069 357.340854,43.5655153 C358.0447,42.3300238 358.792536,41.0945322 359.584362,39.880716 C360.376188,38.6582296 361.080034,37.4964341 361.739889,36.4126696 C361.739889,36.1959167 361.651909,35.9791638 361.519938,35.7797511 C361.343976,35.5803384 361.080034,35.3895959 360.640131,35.2075234 C360.156237,35.025451 359.628352,34.8433785 359.100468,34.6613061 C358.528594,34.4445532 358.08869,34.3145015 357.736767,34.1410991 C356.85696,35.5283177 355.845182,36.9588869 354.701433,38.4761572 C353.557684,39.9934275 352.369945,41.4673472 351.138215,42.8979164 C349.906485,44.3284855 348.630765,45.6723535 347.399035,46.9728709 C346.123315,48.2733883 344.935575,49.3571528 343.835817,50.267515 C343.527884,50.0074116 343.307932,49.7039575 343.175961,49.3138023 C343.04399,48.923647 343,48.5334918 343,48.099986 C343,47.6231296 343.04399,47.1462732 343.219952,46.7127674 C343.351923,46.2359111 343.571875,45.8457558 343.879807,45.4556006 C344.891585,44.6752902 345.991344,43.6782268 347.091103,42.4644106 C348.190861,41.2505943 349.202639,39.9500769 350.170427,38.6495595 C351.094224,37.3056915 351.930041,36.0918753 352.677877,34.878059 C353.381723,33.6642428 353.953597,32.7538806 354.26153,32.1036219 C353.601674,31.1932597 353.293742,30.1528458 353.293742,29.0257307 C353.337732,27.5084604 353.777636,26.1645924 354.657443,24.9941267 C355.49326,23.7803104 356.637009,23.1300517 358.0447,23 C358.08869,23.4768564 358.176671,23.9970633 358.352632,24.4305692 C358.528594,24.864075 358.924507,25.3409313 359.584362,25.7744371 C360.200227,26.2079429 361.124024,26.6847993 362.267774,27.1616557 C363.455513,27.6385121 365.039166,28.2020696 367.018731,28.8089778 C368.16248,29.1557824 369.042287,29.5459376 369.658152,29.9794434 C370.230027,30.4129492 370.537959,31.1499091 370.537959,32.2336736 C370.230027,33.1873864 369.746133,34.2278003 369.086278,35.4416166 C368.426423,36.6554328 367.722577,37.8692491 366.974741,39.0830653 C366.226905,40.2968816 365.523059,41.4239966 364.907195,42.5511117 C364.247339,43.6348762 363.851426,44.588589 363.675465,45.3688995 C363.675465,45.6290029 363.763445,45.8024053 363.939407,45.9758076 C364.115368,46.1058593 364.33532,46.1925605 364.555272,46.1925605 C364.775223,46.1925605 365.171137,46.0191582 365.699021,45.6723535 C366.226905,45.3255489 366.930751,44.8486925 367.722577,44.2417844 C368.558394,43.6348762 369.438201,42.8545658 370.405988,41.900853 C371.417766,40.9471403 372.429544,39.9067263 373.485313,38.7362607" id="Path" fill="#BF2B26"></path>
                    <path d="M378.775521,38.3237767 C378.415715,38.8279807 377.961675,39.4048243 377.404833,40.0500345 C376.839424,40.7337009 376.239748,41.3746382 375.592954,42.1010338 C374.950444,42.8274294 374.307934,43.5110958 373.579755,44.2374914 L371.609391,46.2884907 C372.466071,47.3994487 373.451253,48.2540317 374.47927,48.894969 C375.55012,49.5359063 376.578136,49.8350103 377.563319,49.8350103 C378.419999,49.8350103 379.191011,49.5359063 379.833521,48.894969 C380.476031,48.2540317 380.775869,47.3139904 380.775869,46.0748449 C380.775869,45.4766368 380.733035,44.8356995 380.561699,44.1520331 C380.433197,43.4683666 380.261861,42.8274294 380.047691,42.1437629 L379.405181,40.2209511 C379.191011,39.6227429 379.019675,39.0245348 378.891173,38.4690558 M377.863157,33.8970365 C378.077327,32.8715369 378.377165,31.8887664 378.848339,30.9914542 C379.319513,30.094142 379.876355,29.2822881 380.518865,28.6413508 C381.161376,28.0004135 381.84672,27.4876637 382.574898,27.1031013 C383.303076,26.7185389 384.074088,26.5476223 384.802267,26.5476223 C385.573279,26.5476223 386.215789,26.8039972 386.772631,27.2740179 C387.329473,27.7867677 387.672146,28.4704342 387.800648,29.3677464 C387.543644,29.8804962 387.200971,30.393246 386.772631,30.9059959 C386.344291,31.4187457 385.873117,31.9314955 385.401943,32.4015162 C385.487611,33.1279118 385.701781,33.9397657 386.087287,34.8370779 C386.515627,35.7343901 386.901133,36.6744314 387.329473,37.6999311 C387.757814,38.7254307 388.14332,39.7936595 388.485992,40.9473467 C388.828664,42.1010338 389,43.2547209 389,44.4938663 C389,45.7330117 388.614494,46.929428 387.843482,48.1258442 C387.072469,49.3649897 386.087287,50.4332185 384.845101,51.415989 C383.645748,52.3987595 382.317894,53.1678842 380.904372,53.7660924 C379.490849,54.3643005 378.120161,54.6634045 376.792306,54.6634045 C375.464452,54.6634045 374.2651,54.5352171 373.237083,54.1933839 C372.209067,53.8942798 371.266719,53.4669883 370.53854,52.9542385 C369.810362,52.4842178 369.210686,51.8860096 368.782346,51.2450724 C368.39684,50.6041351 368.18267,49.9631978 368.18267,49.3222605 C368.18267,48.3822192 368.311172,47.5276361 368.61101,46.7157822 C368.910848,45.9466575 369.339188,45.0920744 369.981698,44.2374914 C370.281536,43.8956582 370.75271,43.3401792 371.395221,42.6137836 C372.037731,41.887388 372.765909,41.032805 373.536921,40.1354928 C374.307934,39.1954514 375.12178,38.2126809 375.935626,37.1871813 C376.792306,36.1189524 377.520484,35.1361819 378.120161,34.1534114 M268.332302,9.28077188 C267.090115,12.4854583 265.933597,15.9465196 264.819913,19.6297726 C263.749062,23.3301172 262.76388,26.9620951 261.992868,30.5257064 C261.221856,34.1021365 260.536511,37.5076499 260.065337,40.7379738 C259.594163,43.9853894 259.337159,46.7371468 259.337159,49.0103377 C259.337159,50.1212957 259.465661,51.061337 259.722665,51.8731909 C260.022503,52.6850448 260.408009,53.2832529 260.922018,53.6592695 C260.151005,54.64204 259.165823,55.4111647 257.923637,55.8811854 C256.68145,56.3939352 255.439264,56.6503101 254.197077,56.6503101 C252.398049,56.6503101 250.898858,56.1119228 249.656672,55.0266023 C248.45732,53.937009 247.81481,52.0953825 247.81481,49.4931771 C247.81481,48.5531358 247.943312,47.228532 248.200316,45.5620951 C248.45732,43.8956582 248.799992,41.9728463 249.228332,39.8363887 C249.699506,37.6999311 250.213514,35.3925569 250.856024,32.8715369 C251.485684,30.393246 252.141045,27.8294969 252.860656,25.3084769 C252.582235,25.3084769 252.380915,25.3512061 252.26098,25.3939352 C252.132478,25.4366644 252.003976,25.5648518 251.875474,25.7357684 L234.399197,52.2278429 C232.30033,52.9542385 230.458467,53.2960717 228.856475,53.2960717 C227.734224,53.2960717 226.736192,53.0824259 225.883795,52.6124052 C225.027115,52.1851137 224.384604,51.415989 223.999098,50.305031 C224.149017,49.0658856 224.281803,47.6130944 224.384604,46.0321158 L224.727276,41.1609924 C224.855778,39.4945555 224.941447,37.8281185 225.069949,36.1189524 C225.155617,34.4097864 225.241285,32.7433494 225.284119,31.1623708 C225.326953,30.2223294 225.369787,29.3592006 225.369787,28.5558925 L225.369787,25.9921433 C225.326953,25.607581 225.241285,25.3512061 225.198451,25.2657478 C225.112783,25.1802895 224.954297,25.1375603 224.727276,25.1375603 C220.872215,32.0511371 217.544012,37.8580289 214.746951,42.5582357 C211.919907,47.2584425 209.40555,51.061337 207.225299,53.9241902 C205.040764,56.8297726 203.070399,58.8807719 201.314205,60.1199173 C199.55801,61.4017919 197.84465,62 196.174123,62 C194.289427,62 192.704568,61.3590627 191.453815,59.9917298 C190.211629,58.6585803 189.312114,56.8297726 188.84094,54.5095796 C189.097944,54.5950379 189.397782,54.6804962 189.826123,54.6804962 C191.839321,54.6804962 193.766852,53.8686423 195.694382,52.1594762 C197.621913,50.4930393 199.592278,48.3138525 201.562642,45.5791868 C203.575841,42.844521 205.631873,39.7680221 207.73074,36.2642316 C209.851024,32.7604411 212.091243,29.2566506 214.45568,25.6674018 C215.646466,23.8727774 216.725883,22.5481737 217.693932,21.6935906 C218.653413,20.8390076 219.792798,20.4117161 221.133503,20.4117161 C221.861681,20.4117161 222.675527,20.5399035 223.617876,20.7962784 C224.174718,20.7962784 224.51739,20.5399035 224.560224,20.0271537 C224.217552,16.18153 223.061033,13.2759476 221.090669,11.2249483 C219.120304,9.21667815 216.293259,8.1911785 212.652368,8.1911785 C209.696821,8.1911785 206.869776,8.91757409 204.256902,10.284907 C201.686861,11.694969 199.416658,13.5323225 197.489128,15.8396968 C195.561597,18.147071 194.062406,20.7962784 192.948722,23.7873191 C191.835038,26.7783598 191.278196,29.940317 191.278196,33.1877326 C191.278196,35.3669194 191.96354,36.7769814 193.291394,37.4606478 C192.507532,38.5716058 191.5352,39.4261888 190.378681,40.024397 C189.25643,40.6653343 188.022811,40.9644383 186.767774,40.9644383 C184.865944,40.9644383 183.255385,40.3534114 181.970365,39.1270848 C180.64251,37.8879394 180,35.9223983 180,33.2304618 C180,30.1966919 180.496875,27.2911096 181.456356,24.5137147 C182.428689,21.7192281 183.756543,19.0871123 185.43992,16.6088215 C187.110446,14.1305307 189.102228,11.8658856 191.376714,9.82770503 C193.646917,7.81943487 196.088455,6.06753963 198.70133,4.5720193 C201.314205,3.11922812 204.012748,1.98263267 206.839793,1.19641626 C209.666837,0.397381116 212.468182,0 215.278093,0 C222.23862,0 227.485787,2.14500345 230.998176,6.452102 C234.510565,10.7677464 236.26676,17.4762233 236.26676,26.5903515 C236.26676,27.2740179 236.223926,28.128601 236.223926,29.2267402 L236.095424,32.5596141 L235.966921,35.7215713 C235.924087,36.695796 235.855553,37.3880083 235.808436,37.8152998 C236.082573,37.8152998 236.27961,37.7725706 236.408112,37.7298415 C236.536614,37.6871123 236.622282,37.5589249 236.70795,37.3880083 L255.426414,10.1695382 C255.983256,9.2294969 256.497264,8.75947622 256.985572,8.75947622 C257.114074,8.75947622 257.328244,8.73811165 257.585248,8.71674707 C257.842252,8.69538249 258.056422,8.65692626 258.184924,8.60992419 C258.887402,7.7980703 259.983953,7.37077877 261.448876,7.37077877 C262.391224,7.37077877 263.462074,7.54169538 264.635726,7.8835286 C265.835079,8.19972433 267.120099,8.7808408 268.490788,9.5670572" id="Shape" fill="#BF2B26"></path>
                </g>
            </g>
        </g>
    </g>
</svg>
